<?xml version="1.0" standalone="no"?>
<!DOCTYPE svg PUBLIC "-//W3C//DTD SVG 20010904//EN"
 "http://www.w3.org/TR/2001/REC-SVG-20010904/DTD/svg10.dtd">
<svg version="1.0" xmlns="http://www.w3.org/2000/svg"
 width="32.000000pt" height="32.000000pt" viewBox="0 0 32.000000 32.000000"
 preserveAspectRatio="xMidYMid meet">

<g transform="translate(0.000000,32.000000) scale(0.100000,-0.100000)"
fill="#000000" stroke="none">
<path d="M2 188 l3 -113 35 -1 35 -2 -32 5 c-18 2 -33 8 -33 14 0 5 63 9 150
9 93 0 150 -4 150 -10 0 -6 -47 -10 -117 -11 -65 -1 -110 -3 -100 -6 9 -2 17
-11 17 -19 0 -8 4 -14 10 -14 5 0 7 7 4 15 -5 12 3 15 36 15 33 0 41 -3 36
-15 -3 -8 -1 -15 4 -15 6 0 10 7 10 14 0 11 15 16 53 18 l52 3 3 113 3 112
-43 -2 -43 -1 38 -4 37 -4 0 -90 0 -89 -150 0 -150 0 0 90 0 89 108 4 107 3
-113 2 -113 2 3 -112z"/>
<path d="M58 263 c18 -2 45 -2 60 0 15 2 0 4 -33 4 -33 0 -45 -2 -27 -4z"/>
<path d="M260 235 c0 -24 5 -35 15 -35 10 0 15 11 15 35 0 24 -5 35 -15 35
-10 0 -15 -11 -15 -35z m17 -12 c-3 -10 -5 -4 -5 12 0 17 2 24 5 18 2 -7 2
-21 0 -30z"/>
<path d="M170 230 c0 -20 5 -30 15 -30 10 0 15 10 15 30 0 20 -5 30 -15 30
-10 0 -15 -10 -15 -30z m17 -12 c-3 -7 -5 -2 -5 12 0 14 2 19 5 13 2 -7 2 -19
0 -25z"/>
<path d="M210 220 c0 -13 7 -20 20 -20 13 0 20 7 20 20 0 13 -7 20 -20 20 -13
0 -20 -7 -20 -20z m30 0 c0 -5 -4 -10 -10 -10 -5 0 -10 5 -10 10 0 6 5 10 10
10 6 0 10 -4 10 -10z"/>
<path d="M58 213 c18 -2 45 -2 60 0 15 2 0 4 -33 4 -33 0 -45 -2 -27 -4z"/>
<path d="M88 183 c12 -2 30 -2 40 0 9 3 -1 5 -23 4 -22 0 -30 -2 -17 -4z"/>
<path d="M185 163 l-20 -15 20 4 c11 2 26 -3 33 -12 11 -13 13 -13 22 2 6 10
18 14 32 11 23 -5 23 -5 3 10 -19 15 -21 15 -34 -4 -14 -20 -14 -20 -25 -1
-10 19 -13 19 -31 5z"/>
<path d="M58 163 c18 -2 45 -2 60 0 15 2 0 4 -33 4 -33 0 -45 -2 -27 -4z"/>
<path d="M43 133 c9 -2 23 -2 30 0 6 3 -1 5 -18 5 -16 0 -22 -2 -12 -5z"/>
<path d="M90 28 c0 -5 32 -8 70 -8 39 0 70 3 70 8 0 4 -31 7 -70 7 -38 0 -70
-3 -70 -7z"/>
</g>
</svg>
